<?xml version="1.0" standalone="no"?>
<!DOCTYPE svg PUBLIC "-//W3C//DTD SVG 20010904//EN"
 "http://www.w3.org/TR/2001/REC-SVG-20010904/DTD/svg10.dtd">
<svg version="1.0" xmlns="http://www.w3.org/2000/svg"
 width="218.000000pt" height="208.000000pt" viewBox="0 0 218.000000 208.000000"
 preserveAspectRatio="xMidYMid meet">

<g transform="translate(0.000000,208.000000) scale(0.100000,-0.100000)"
fill="#000000" stroke="none">
<path d="M1 1613 c1 -259 5 -448 9 -422 77 453 449 811 915 878 39 6 -111 9
-432 10 l-493 1 1 -467z"/>
<path d="M1255 2069 c466 -67 838 -425 915 -878 4 -26 8 163 9 422 l1 467
-492 -1 c-322 -1 -472 -4 -433 -10z"/>
<path d="M576 1815 c-53 -19 -85 -44 -120 -93 -23 -32 -30 -54 -34 -111 -2
-39 -2 -71 2 -71 4 0 18 13 32 29 14 17 49 42 78 56 l53 26 339 -3 339 -3 73
-27 c193 -70 328 -201 397 -388 25 -66 29 -89 29 -195 1 -134 -10 -179 -71
-297 -44 -84 -141 -184 -231 -237 -98 -58 -181 -83 -292 -88 -83 -4 -99 -2
-128 16 -41 26 -72 77 -72 119 l0 32 93 0 c181 1 302 46 402 151 162 170 165
418 5 591 -63 70 -137 113 -234 138 -69 17 -111 20 -335 20 -143 0 -272 -5
-293 -10 -65 -18 -130 -70 -160 -129 l-28 -53 0 -422 c0 -483 1 -489 75 -554
24 -21 68 -46 97 -56 69 -22 178 -33 178 -17 0 6 -4 11 -9 11 -20 0 -108 91
-131 136 l-25 49 -3 406 c-3 399 -2 406 18 432 20 25 28 27 91 27 l69 0 0
-380 c0 -235 4 -398 11 -430 14 -67 77 -157 136 -197 94 -62 189 -75 348 -48
297 52 550 268 642 550 33 103 43 283 20 392 -54 254 -237 474 -480 576 -136
57 -219 67 -547 66 -227 0 -304 -3 -334 -14z m648 -535 c178 -67 235 -282 112
-427 -15 -17 -54 -46 -88 -62 -57 -29 -69 -31 -170 -31 l-108 0 0 270 0 270
100 0 c75 0 112 -5 154 -20z"/>
<path d="M1 468 l-1 -468 493 1 c321 1 471 4 432 10 -466 67 -838 425 -915
878 -4 26 -8 -163 -9 -421z"/>
<path d="M2170 903 c0 -52 -50 -215 -92 -301 -152 -312 -470 -540 -823 -591
-39 -6 111 -9 433 -10 l492 -1 0 465 c0 256 -2 465 -5 465 -3 0 -5 -12 -5 -27z"/>
</g>
</svg>
